<?xml version="1.0" encoding="UTF-8" standalone="no"?>
<!DOCTYPE svg PUBLIC "-//W3C//DTD SVG 1.0//EN"
 "http://www.w3.org/TR/2001/REC-SVG-20010904/DTD/svg10.dtd" [
 <!ATTLIST svg xmlns:xlink CDATA #FIXED "http://www.w3.org/1999/xlink">
]>
<!-- Generated by dot version 2.8 (Wed Dec 20 14:50:18 UTC 2006)
     For user: (marty) Marty,,, -->
<!-- Title: wxDebuggy Pages: 1 -->
<svg width="364pt" height="204pt"
 viewBox = "0 0 364 204"
 xmlns="http://www.w3.org/2000/svg" xmlns:xlink="http://www.w3.org/1999/xlink">
<g id="graph0" class="graph" style="font-family:Times-Roman;font-size:14.00;">
<title>wxDebuggy</title>
<polygon style="fill:white;stroke:white;" points="-2,206 -2,-2 366,-2 366,206 -2,206"/>
<!-- vv_Object -->
<g id="node1" class="node"><title>vv_Object</title>
<polygon style="fill:none;stroke:black;" points="35,42 89,42 89,6 35,6 35,42"/>
<text text-anchor="middle" x="62" y="29">Name</text>
</g>
<!-- vv_Module -->
<g id="node2" class="node"><title>vv_Module</title>
<polygon style="fill:none;stroke:black;" points="4,128 120,128 120,80 4,80 4,128"/>
<text text-anchor="middle" x="62" y="97">List_of_Instances</text>
<polyline style="fill:none;stroke:black;" points="4,104 120,104 "/>
<text text-anchor="middle" x="62" y="121">List_of_Ports</text>
</g>
<!-- vv_Object&#45;&gt;vv_Module -->
<g id="edge4" class="edge"><title>vv_Object&#45;&gt;vv_Module</title>
<path style="fill:none;stroke:black;" d="M62,42C62,50 62,60 62,70"/>
<polygon style="fill:black;stroke:black;" points="66,70 62,80 59,70 66,70"/>
</g>
<!-- a -->
<g id="node3" class="node"><title>a</title>
<polygon style="fill:none;stroke:black;" points="111,44 273,44 273,4 111,4 111,44"/>
<text text-anchor="start" x="119" y="21">Graphs can</text>
<text text-anchor="start" x="119" y="37">be fun</text>
<polyline style="fill:none;stroke:black;" points="191,44 191,4 "/>
<text text-anchor="middle" x="210" y="29">mid</text>
<polyline style="fill:none;stroke:black;" points="229,44 229,4 "/>
<text text-anchor="middle" x="251" y="29">right</text>
</g>
<!-- b -->
<g id="node4" class="node"><title>b</title>
<polygon style="fill:none;stroke:black;" points="138,122 205,122 205,86 138,86 138,122"/>
<text text-anchor="middle" x="148" y="109"> </text>
<polyline style="fill:none;stroke:black;" points="159,122 159,86 "/>
<text text-anchor="middle" x="171" y="109">b</text>
<polyline style="fill:none;stroke:black;" points="184,122 184,86 "/>
<text text-anchor="middle" x="194" y="109"> </text>
</g>
<!-- a&#45;&gt;b -->
<g id="edge2" class="edge"><title>a&#45;&gt;b</title>
<path style="fill:none;stroke:black;" d="M191,44C189,55 185,66 182,76"/>
<polygon style="fill:black;stroke:black;" points="185,78 178,86 178,75 185,78"/>
</g>
<!-- a&#45;&gt;b -->
<g id="edge6" class="edge"><title>a&#45;&gt;b</title>
<path style="fill:none;stroke:black;" d="M150,44C150,54 150,65 150,76"/>
<polygon style="fill:black;stroke:black;" points="153,76 149,86 147,76 153,76"/>
</g>
<!-- y -->
<g id="node9" class="node"><title>y</title>
<polygon style="fill:none;stroke:black;" points="294,122 361,122 361,86 294,86 294,122"/>
<text text-anchor="middle" x="304" y="109"> </text>
<polyline style="fill:none;stroke:black;" points="315,122 315,86 "/>
<text text-anchor="middle" x="327" y="109">y</text>
<polyline style="fill:none;stroke:black;" points="340,122 340,86 "/>
<text text-anchor="middle" x="350" y="109"> </text>
</g>
<!-- a&#45;&gt;y -->
<g id="edge10" class="edge"><title>a&#45;&gt;y</title>
<path style="fill:none;stroke:black;" d="M265,44C272,54 280,66 288,78"/>
<polygon style="fill:black;stroke:black;" points="291,76 294,86 285,80 291,76"/>
</g>
<!-- d -->
<g id="node13" class="node"><title>d</title>
<polygon style="fill:none;stroke:black;" points="222,122 276,122 276,86 222,86 222,122"/>
<text text-anchor="middle" x="249" y="109">d</text>
</g>
<!-- a&#45;&gt;d -->
<g id="edge8" class="edge"><title>a&#45;&gt;d</title>
<path style="fill:none;stroke:black;" d="M220,44C225,54 230,66 236,77"/>
<polygon style="fill:black;stroke:black;" points="239,75 240,86 233,78 239,75"/>
</g>
<!-- x -->
<g id="node8" class="node"><title>x</title>
<polygon style="fill:none;stroke:black;" points="168,200 235,200 235,164 168,164 168,200"/>
<text text-anchor="middle" x="178" y="187"> </text>
<polyline style="fill:none;stroke:black;" points="189,200 189,164 "/>
<text text-anchor="middle" x="201" y="187">x</text>
<polyline style="fill:none;stroke:black;" points="214,200 214,164 "/>
<text text-anchor="middle" x="224" y="187"> </text>
</g>
<!-- b&#45;&gt;x -->
<g id="edge14" class="edge"><title>b&#45;&gt;x</title>
<path style="fill:none;stroke:black;" d="M173,122C174,132 175,143 176,154"/>
<polygon style="fill:black;stroke:black;" points="179,154 177,164 173,154 179,154"/>
</g>
<!-- z -->
<g id="node10" class="node"><title>z</title>
<polygon style="fill:none;stroke:black;" points="86,200 151,200 151,164 86,164 86,200"/>
<text text-anchor="middle" x="96" y="187"> </text>
<polyline style="fill:none;stroke:black;" points="107,200 107,164 "/>
<text text-anchor="middle" x="118" y="187">z</text>
<polyline style="fill:none;stroke:black;" points="130,200 130,164 "/>
<text text-anchor="middle" x="140" y="187"> </text>
</g>
<!-- b&#45;&gt;z -->
<g id="edge18" class="edge"><title>b&#45;&gt;z</title>
<path style="fill:none;stroke:black;" d="M147,122C146,132 144,143 143,154"/>
<polygon style="fill:black;stroke:black;" points="146,154 142,164 140,154 146,154"/>
</g>
<!-- c -->
<g id="node7" class="node"><title>c</title>
<polygon style="fill:none;stroke:black;" points="294,42 359,42 359,6 294,6 294,42"/>
<text text-anchor="middle" x="304" y="29"> </text>
<polyline style="fill:none;stroke:black;" points="315,42 315,6 "/>
<text text-anchor="middle" x="326" y="29">c</text>
<polyline style="fill:none;stroke:black;" points="338,42 338,6 "/>
<text text-anchor="middle" x="348" y="29"> </text>
</g>
<!-- c&#45;&gt;y -->
<g id="edge16" class="edge"><title>c&#45;&gt;y</title>
<path style="fill:none;stroke:black;" d="M348,42C349,52 349,65 349,76"/>
<polygon style="fill:black;stroke:black;" points="353,76 349,86 346,76 353,76"/>
</g>
<!-- c&#45;&gt;d -->
<g id="edge12" class="edge"><title>c&#45;&gt;d</title>
<path style="fill:none;stroke:black;" d="M294,42C286,54 277,67 269,78"/>
<polygon style="fill:black;stroke:black;" points="272,80 263,86 266,76 272,80"/>
</g>
</g>
</svg>
